<svg viewBox="0 0 24 24" xmlns="http://www.w3.org/2000/svg">
  {/* Solid White Circular Background */}
  <circle cx="12" cy="12" r="11" fill="white"/>
  
  {/* Base Building - Larger and better centered */}
  <g transform="translate(3, 4) scale(0.95)">
    {/* Base Building */}
    <path d="M4 6h16v10H4z" fill="#546E7A"/>
    
    {/* Detailed Awning with Stripes */}
    <path d="M3 6c0-1 1-1 1-1h16s1 0 1 1l-2 2c-1 1-2 0-2 0s-1 1-2 0-2 1-3 0-2 1-3 0-2 1-3 0l-2-2z" fill="#455A64"/>
    <path d="M5 5.5l1.5 1.5M9 5.5l1.5 1.5M13 5.5l1.5 1.5M17 5.5l1.5 1.5" stroke="#78909C" strokeWidth="0.5"/>
    
    {/* Window Details */}
    <path d="M7 8h10v6H7z" fill="#B0BEC5"/>
    <path d="M7 8h10v1H7z" fill="#78909C"/>
    <path d="M7 11h10v0.5H7z" fill="#78909C" opacity="0.5"/>
    <path d="M7 13h10v1H7z" fill="#78909C"/>
    
    {/* Side Details */}
    <rect x="4" y="7" width="1" height="8" fill="#455A64"/>
    <rect x="19" y="7" width="1" height="8" fill="#455A64"/>
    
    {/* Display Items */}
    <rect x="8" y="9.5" width="2" height="2" fill="#78909C"/>
    <rect x="11" y="9.5" width="2" height="2" fill="#78909C"/>
    <rect x="14" y="9.5" width="2" height="2" fill="#78909C"/>
    
    {/* Bottom Platform */}
    <path d="M4 16h16v1H4z" fill="#37474F"/>
    
    {/* Decorative Gears */}
    <circle cx="5" cy="5" r="0.5" fill="#B0BEC5"/>
    <circle cx="19" cy="5" r="0.5" fill="#B0BEC5"/>
  </g>
</svg>