<svg xmlns="http://www.w3.org/2000/svg" viewBox="0 0 224 96">
  <!-- Using 1 pixel = 2 units to make pixels clearly visible -->
  
  <!-- Grass -->
  <g transform="translate(0,0)">
    <!-- Base -->
    <rect width="32" height="32" fill="#2D4C1E"/>
    <!-- Grass details - each rect is 2x2 pixels -->
    <rect x="4" y="4" width="2" height="2" fill="#3B6227"/>
    <rect x="12" y="6" width="2" height="2" fill="#3B6227"/>
    <rect x="20" y="4" width="2" height="2" fill="#3B6227"/>
    <rect x="8" y="12" width="2" height="2" fill="#3B6227"/>
    <rect x="16" y="14" width="2" height="2" fill="#3B6227"/>
    <rect x="24" y="10" width="2" height="2" fill="#3B6227"/>
    <rect x="6" y="20" width="2" height="2" fill="#3B6227"/>
    <rect x="14" y="22" width="2" height="2" fill="#3B6227"/>
    <rect x="22" y="18" width="2" height="2" fill="#3B6227"/>
    <rect x="10" y="26" width="2" height="2" fill="#3B6227"/>
    <rect x="18" y="28" width="2" height="2" fill="#3B6227"/>
    <rect x="26" y="24" width="2" height="2" fill="#3B6227"/>
  </g>

  <!-- Water -->
  <g transform="translate(40,0)">
    <rect width="32" height="32" fill="#1A3B8C"/>
    <!-- Wave pattern - 2x2 pixel blocks -->
    <rect x="2" y="8" width="4" height="2" fill="#2450B8"/>
    <rect x="10" y="8" width="4" height="2" fill="#2450B8"/>
    <rect x="18" y="8" width="4" height="2" fill="#2450B8"/>
    <rect x="26" y="8" width="4" height="2" fill="#2450B8"/>
    <rect x="6" y="16" width="4" height="2" fill="#2450B8"/>
    <rect x="14" y="16" width="4" height="2" fill="#2450B8"/>
    <rect x="22" y="16" width="4" height="2" fill="#2450B8"/>
    <rect x="2" y="24" width="4" height="2" fill="#2450B8"/>
    <rect x="10" y="24" width="4" height="2" fill="#2450B8"/>
    <rect x="18" y="24" width="4" height="2" fill="#2450B8"/>
    <rect x="26" y="24" width="4" height="2" fill="#2450B8"/>
  </g>

  <!-- Dirt -->
  <g transform="translate(80,0)">
    <rect width="32" height="32" fill="#5C3C24"/>
    <!-- Dirt details - 2x2 pixel blocks -->
    <rect x="4" y="4" width="2" height="2" fill="#4A3019"/>
    <rect x="12" y="8" width="2" height="2" fill="#4A3019"/>
    <rect x="20" y="6" width="2" height="2" fill="#4A3019"/>
    <rect x="8" y="14" width="2" height="2" fill="#4A3019"/>
    <rect x="16" y="16" width="2" height="2" fill="#4A3019"/>
    <rect x="24" y="12" width="2" height="2" fill="#4A3019"/>
    <rect x="6" y="22" width="2" height="2" fill="#4A3019"/>
    <rect x="14" y="24" width="2" height="2" fill="#4A3019"/>
    <rect x="22" y="20" width="2" height="2" fill="#4A3019"/>
    <rect x="10" y="28" width="2" height="2" fill="#4A3019"/>
    <rect x="18" y="26" width="2" height="2" fill="#4A3019"/>
    <rect x="26" y="28" width="2" height="2" fill="#4A3019"/>
  </g>

  <!-- Iron Ore -->
  <g transform="translate(0,40)">
    <rect width="32" height="32" fill="#5C3C24"/>
    <!-- Iron chunks - exactly 2x2 pixel blocks -->
    <rect x="8" y="8" width="4" height="4" fill="#7B7B7B"/>
    <rect x="20" y="6" width="4" height="4" fill="#7B7B7B"/>
    <rect x="14" y="16" width="4" height="4" fill="#7B7B7B"/>
    <rect x="6" y="24" width="4" height="4" fill="#7B7B7B"/>
    <rect x="24" y="22" width="4" height="4" fill="#7B7B7B"/>
  </g>

  <!-- Copper Ore -->
  <g transform="translate(40,40)">
    <rect width="32" height="32" fill="#5C3C24"/>
    <!-- Copper chunks - 2x2 pixel blocks -->
    <rect x="10" y="6" width="4" height="4" fill="#B87333"/>
    <rect x="22" y="8" width="4" height="4" fill="#B87333"/>
    <rect x="16" y="14" width="4" height="4" fill="#B87333"/>
    <rect x="8" y="22" width="4" height="4" fill="#B87333"/>
    <rect x="26" y="20" width="4" height="4" fill="#B87333"/>
  </g>

  <!-- Coal -->
  <g transform="translate(80,40)">
    <rect width="32" height="32" fill="#5C3C24"/>
    <!-- Coal chunks - 2x2 pixel blocks -->
    <rect x="6" y="8" width="6" height="6" fill="#1A1A1A"/>
    <rect x="18" y="6" width="6" height="6" fill="#1A1A1A"/>
    <rect x="12" y="18" width="6" height="6" fill="#1A1A1A"/>
    <rect x="24" y="20" width="6" height="6" fill="#1A1A1A"/>
  </g>

  <!-- Quartz -->
  <g transform="translate(120,40)">
  <!-- Base ground -->
  <rect width="32" height="32" fill="#5C3C24"/>
  
  <!-- Quartz crystals - using proper pixel blocks -->
  <!-- Crystal 1 -->
  <rect x="8" y="8" width="2" height="2" fill="#E6E6E6"/>
  <rect x="10" y="10" width="2" height="2" fill="#E6E6E6"/>
  
  <!-- Crystal 2 -->
  <rect x="20" y="6" width="4" height="2" fill="#E6E6E6"/>
  <rect x="22" y="8" width="2" height="2" fill="#E6E6E6"/>
  
  <!-- Crystal 3 -->
  <rect x="14" y="16" width="4" height="2" fill="#E6E6E6"/>
  <rect x="16" y="18" width="2" height="2" fill="#E6E6E6"/>
  
  <!-- Crystal 4 -->
  <rect x="6" y="24" width="4" height="2" fill="#E6E6E6"/>
  <rect x="8" y="26" width="2" height="2" fill="#E6E6E6"/>
  
  <!-- Crystal 5 -->
  <rect x="24" y="20" width="4" height="2" fill="#E6E6E6"/>
  <rect x="26" y="22" width="2" height="2" fill="#E6E6E6"/>
  </g>

  <!-- Bauxite -->
  <g transform="translate(160,40)">
    <rect width="32" height="32" fill="#5C3C24"/>
    <!-- Bauxite deposits - 2x2 pixel blocks -->
    <rect x="8" y="6" width="4" height="4" fill="#CC8E6C"/>
    <rect x="20" y="8" width="4" height="4" fill="#CC8E6C"/>
    <rect x="14" y="16" width="4" height="4" fill="#CC8E6C"/>
    <rect x="6" y="22" width="4" height="4" fill="#CC8E6C"/>
    <rect x="24" y="20" width="4" height="4" fill="#CC8E6C"/>
  </g>

  <!-- Animated water -->
  <svg xmlns="http://www.w3.org/2000/svg" viewBox="0 0 128 32">
  <!-- Frame 1 -->
  <g transform="translate(0,0)">
    <rect width="32" height="32" fill="#1A3B8C"/>
    <rect x="0" y="8" width="4" height="2" fill="#2450B8"/>
    <rect x="8" y="8" width="4" height="2" fill="#2450B8"/>
    <rect x="16" y="8" width="4" height="2" fill="#2450B8"/>
    <rect x="24" y="8" width="4" height="2" fill="#2450B8"/>
    <rect x="4" y="16" width="4" height="2" fill="#2450B8"/>
    <rect x="12" y="16" width="4" height="2" fill="#2450B8"/>
    <rect x="20" y="16" width="4" height="2" fill="#2450B8"/>
    <rect x="28" y="16" width="4" height="2" fill="#2450B8"/>
    <rect x="0" y="24" width="4" height="2" fill="#2450B8"/>
    <rect x="8" y="24" width="4" height="2" fill="#2450B8"/>
    <rect x="16" y="24" width="4" height="2" fill="#2450B8"/>
    <rect x="24" y="24" width="4" height="2" fill="#2450B8"/>
  </g>
  
  <!-- Frame 2 -->
  <g transform="translate(32,0)">
    <rect width="32" height="32" fill="#1A3B8C"/>
    <rect x="2" y="8" width="4" height="2" fill="#2450B8"/>
    <rect x="10" y="8" width="4" height="2" fill="#2450B8"/>
    <rect x="18" y="8" width="4" height="2" fill="#2450B8"/>
    <rect x="26" y="8" width="4" height="2" fill="#2450B8"/>
    <rect x="6" y="16" width="4" height="2" fill="#2450B8"/>
    <rect x="14" y="16" width="4" height="2" fill="#2450B8"/>
    <rect x="22" y="16" width="4" height="2" fill="#2450B8"/>
    <rect x="30" y="16" width="4" height="2" fill="#2450B8"/>
    <rect x="2" y="24" width="4" height="2" fill="#2450B8"/>
    <rect x="10" y="24" width="4" height="2" fill="#2450B8"/>
    <rect x="18" y="24" width="4" height="2" fill="#2450B8"/>
    <rect x="26" y="24" width="4" height="2" fill="#2450B8"/>
  </g>
  
  <!-- Frame 3 -->
  <g transform="translate(64,0)">
    <rect width="32" height="32" fill="#1A3B8C"/>
    <rect x="4" y="8" width="4" height="2" fill="#2450B8"/>
    <rect x="12" y="8" width="4" height="2" fill="#2450B8"/>
    <rect x="20" y="8" width="4" height="2" fill="#2450B8"/>
    <rect x="28" y="8" width="4" height="2" fill="#2450B8"/>
    <rect x="8" y="16" width="4" height="2" fill="#2450B8"/>
    <rect x="16" y="16" width="4" height="2" fill="#2450B8"/>
    <rect x="24" y="16" width="4" height="2" fill="#2450B8"/>
    <rect x="0" y="16" width="4" height="2" fill="#2450B8"/>
    <rect x="4" y="24" width="4" height="2" fill="#2450B8"/>
    <rect x="12" y="24" width="4" height="2" fill="#2450B8"/>
    <rect x="20" y="24" width="4" height="2" fill="#2450B8"/>
    <rect x="28" y="24" width="4" height="2" fill="#2450B8"/>
  </g>
  
  <!-- Frame 4 -->
  <g transform="translate(96,0)">
    <rect width="32" height="32" fill="#1A3B8C"/>
    <rect x="2" y="8" width="4" height="2" fill="#2450B8"/>
    <rect x="10" y="8" width="4" height="2" fill="#2450B8"/>
    <rect x="18" y="8" width="4" height="2" fill="#2450B8"/>
    <rect x="26" y="8" width="4" height="2" fill="#2450B8"/>
    <rect x="6" y="16" width="4" height="2" fill="#2450B8"/>
    <rect x="14" y="16" width="4" height="2" fill="#2450B8"/>
    <rect x="22" y="16" width="4" height="2" fill="#2450B8"/>
    <rect x="30" y="16" width="4" height="2" fill="#2450B8"/>
    <rect x="2" y="24" width="4" height="2" fill="#2450B8"/>
    <rect x="10" y="24" width="4" height="2" fill="#2450B8"/>
    <rect x="18" y="24" width="4" height="2" fill="#2450B8"/>
    <rect x="26" y="24" width="4" height="2" fill="#2450B8"/>
  </g>
</svg>
</svg>