<svg xmlns="http://www.w3.org/2000/svg" viewBox="0 0 120 24">
  <!-- Coal -->
  <g transform="translate(0,0)">
    <rect x="4" y="4" width="16" height="16" rx="2" fill="#363636"/>
    <circle cx="8" cy="8" r="1" fill="#1a1a1a"/>
    <circle cx="12" cy="7" r="1" fill="#1a1a1a"/>
    <circle cx="16" cy="9" r="1" fill="#1a1a1a"/>
    <circle cx="9" cy="12" r="1" fill="#1a1a1a"/>
    <circle cx="14" cy="13" r="1" fill="#1a1a1a"/>
    <circle cx="11" cy="16" r="1" fill="#1a1a1a"/>
    <circle cx="16" cy="16" r="1" fill="#1a1a1a"/>
  </g>

  <!-- Iron -->
  <g transform="translate(24,0)">
    <rect x="4" y="4" width="16" height="16" rx="2" fill="#8B8B8B"/>
    <path d="M7,7 L17,7 L17,17 L7,17 Z" fill="#6E6E6E"/>
    <line x1="7" y1="10" x2="17" y2="10" stroke="#5A5A5A" stroke-width="1"/>
    <line x1="7" y1="14" x2="17" y2="14" stroke="#5A5A5A" stroke-width="1"/>
    <rect x="10" y="10" width="4" height="4" fill="#4A4A4A"/>
  </g>

  <!-- Copper -->
  <g transform="translate(48,0)">
    <rect x="4" y="4" width="16" height="16" rx="2" fill="#CD7F32"/>
    <path d="M7,7 L17,7 L17,17 L7,17 Z" fill="#B87333"/>
    <circle cx="12" cy="12" r="3" fill="#A0522D"/>
    <circle cx="12" cy="12" r="1" fill="#DAA520"/>
  </g>

  <!-- Quartz -->
  <g transform="translate(72,0)">
    <rect x="4" y="4" width="16" height="16" rx="2" fill="#E6E6FA"/>
    <path d="M8,8 L16,8 L16,16 L8,16 Z" fill="#F0F8FF" stroke="#D8D8D8" stroke-width="1"/>
    <line x1="8" y1="8" x2="16" y2="16" stroke="#D8D8D8" stroke-width="1"/>
    <line x1="16" y1="8" x2="8" y2="16" stroke="#D8D8D8" stroke-width="1"/>
  </g>

  <!-- Bauxite -->
  <g transform="translate(96,0)">
    <rect x="4" y="4" width="16" height="16" rx="2" fill="#B5651D"/>
    <circle cx="8" cy="8" r="2" fill="#C76A1D"/>
    <circle cx="16" cy="16" r="2" fill="#95531B"/>
    <circle cx="12" cy="12" r="2" fill="#A55C1C"/>
    <circle cx="16" cy="8" r="2" fill="#8B4513"/>
  </g>
</svg>